<?xml version="1.0" encoding="UTF-8"?>
<svg id="Layer_1" data-name="Layer 1" xmlns="http://www.w3.org/2000/svg" viewBox="0 0 1200 388.17">
  <defs>
    <style>
      .cls-1 {
        fill: #121212;
        stroke-width: 0px;
      }
    </style>
  </defs>
  <g>
    <path class="cls-1" d="M112.53,207.03h47.27c-1.88,19.07-22.83,36.53-45.66,36.53-39.75,0-55.87-27.93-55.87-62.85,0-37.33,15.85-66.07,51.03-66.07s50.5,28.47,50.5,28.47l42.98-23.64c-21.22-35.45-51.57-51.57-92.93-51.57C49.94,67.89,2.94,115.43,2.94,178.55s41.9,110.12,107.44,110.12c77.09,0,105.29-52.38,105.29-113.35v-11.28h-103.14v42.97Z"/>
    <path class="cls-1" d="M397.88,139.88c0-43.78-33.84-64.46-70.37-64.46h-81.92v205.74h53.72v-72.52h10.74c5.91,9.4,43.24,72.52,43.24,72.52h64.19s-49.69-77.36-55.06-85.14c23.1-8.86,35.45-27.93,35.45-56.14ZM315.43,168.08h-17.19v-51.57h17.73c17.73,0,27.13,8.33,27.13,25.79,0,19.61-12.89,25.79-27.67,25.79Z"/>
    <path class="cls-1" d="M560.44,204.34c0,23.9-16.92,34.38-36.53,34.38s-37.07-9.67-37.07-37.07v-126.24h-53.72v137.52c0,50.5,44.32,74.13,89.71,74.13,59.9,0,91.86-33.04,91.86-80.04V75.41h-54.26v128.93Z"/>
    <polygon class="cls-1" points="805.48 197.36 709.32 75.41 655.6 75.41 655.6 281.16 709.32 281.16 709.32 158.41 803.87 281.16 857.59 281.16 857.59 75.41 805.48 75.41 805.48 197.36"/>
    <rect class="cls-1" x="899.11" y="75.41" width="53.72" height="205.74"/>
    <path class="cls-1" d="M1093.71,164.05v42.97h47.27c-1.88,19.07-22.83,36.53-45.66,36.53-39.75,0-55.87-27.93-55.87-62.85,0-37.33,15.85-66.07,51.03-66.07s50.5,28.47,50.5,28.47l42.98-23.64c-21.22-35.45-51.57-51.57-92.93-51.57-59.9,0-106.9,47.54-106.9,110.66s41.9,110.12,107.44,110.12c77.09,0,105.29-52.38,105.29-113.35v-11.28h-103.14Z"/>
    <circle class="cls-1" cx="489.65" cy="24.83" r="24.83"/>
    <circle class="cls-1" cx="562.93" cy="24.83" r="24.83"/>
  </g>
  <g>
    <path class="cls-1" d="M14.45,386.15H0v-55.36h24.72c9.83,0,17.42,6.72,17.42,18.57s-7.59,17.49-16.98,17.49h-10.7v19.3ZM14.17,356.23h5.06c4.41,0,8.53-1.37,8.53-7.44,0-5.49-3.61-7.08-8.38-7.08h-5.2v14.53Z"/>
    <path class="cls-1" d="M70.37,366.64v19.51h-14.45v-55.36h22.04c9.83,0,18.94,5.57,18.94,17.35,0,7.59-3.32,12.72-9.54,15.11,1.45,2.1,14.82,22.91,14.82,22.91h-17.27s-10.05-16.98-11.64-19.51h-2.89ZM70.08,355.72h4.63c3.98,0,7.44-1.66,7.44-6.94,0-4.7-2.53-6.94-7.3-6.94h-4.77v13.88Z"/>
    <path class="cls-1" d="M141.42,328.77c17.35,0,30.5,12.79,30.5,29.13,0,17.92-13.59,30.28-30.57,30.28-17.92,0-30.5-12.72-30.5-29.78s13.73-29.63,30.57-29.63ZM125.44,358.61c0,9.4,6.43,16.04,15.83,16.04s16.04-6.79,16.04-16.48c0-8.89-6.79-15.83-15.97-15.83s-15.9,6.87-15.9,16.26Z"/>
    <path class="cls-1" d="M187.44,330.79h32.52v12.58h-18.07v8.96h15.76v12.29h-15.76v21.54h-14.45v-55.36Z"/>
    <path class="cls-1" d="M234.19,330.79h32.09v12.58h-17.63v8.96h16.62v12.29h-16.62v9.25h17.92v12.29h-32.38v-55.36Z"/>
    <path class="cls-1" d="M300.67,328.77c7.15,0,13.73,3.32,17.71,5.93l-5.64,10.84s-5.78-4.41-11.13-4.41c-3.54,0-5.56,1.95-5.56,4.84s3.4,3.98,6.29,5.06c1.73.65,4.55,1.81,6,2.39,8.31,3.32,12.58,8.38,12.58,16.69,0,11.85-10.99,18.07-22.12,18.07-7.81,0-13.3-3.25-19.08-6.87,0,0,4.55-9.11,5.78-11.2,2.67,2.39,7.73,5.35,13.01,5.35,4.05,0,8.02-1.37,8.02-4.34,0-2.31-.36-3.4-5.78-5.42-1.73-.65-5.85-2.24-8.24-3.32-7.01-3.18-10.84-8.17-10.84-15.97,0-11.06,9.18-17.63,19.01-17.63Z"/>
    <path class="cls-1" d="M354.8,328.77c7.15,0,13.73,3.32,17.71,5.93l-5.64,10.84s-5.78-4.41-11.13-4.41c-3.54,0-5.56,1.95-5.56,4.84s3.4,3.98,6.29,5.06c1.73.65,4.55,1.81,6,2.39,8.31,3.32,12.58,8.38,12.58,16.69,0,11.85-10.99,18.07-22.12,18.07-7.81,0-13.3-3.25-19.08-6.87,0,0,4.55-9.11,5.78-11.2,2.67,2.39,7.73,5.35,13.01,5.35,4.05,0,8.02-1.37,8.02-4.34,0-2.31-.36-3.4-5.78-5.42-1.73-.65-5.85-2.24-8.24-3.32-7.01-3.18-10.84-8.17-10.84-15.97,0-11.06,9.18-17.63,19.01-17.63Z"/>
    <path class="cls-1" d="M391.37,386.15v-55.36h14.45v55.36h-14.45Z"/>
    <path class="cls-1" d="M451.88,328.77c17.35,0,30.5,12.79,30.5,29.13,0,17.92-13.59,30.28-30.57,30.28-17.92,0-30.5-12.72-30.5-29.78s13.73-29.63,30.57-29.63ZM435.91,358.61c0,9.4,6.43,16.04,15.83,16.04s16.04-6.79,16.04-16.48c0-8.89-6.79-15.83-15.97-15.83s-15.9,6.87-15.9,16.26Z"/>
    <path class="cls-1" d="M512.36,386.15h-14.45v-55.36h14.45l25.87,32.81v-32.81h14.02v55.36h-14.45l-25.44-33.03v33.03Z"/>
    <path class="cls-1" d="M565.48,386.15l20.52-55.29,16.55-.07,20.53,55.36h-15.61l-3.76-10.26h-19.15l-3.69,10.26h-15.39ZM588.17,364.76h11.78l-5.85-16.91-5.93,16.91Z"/>
    <path class="cls-1" d="M636.36,386.15v-55.36h14.45v42.79h17.49v12.58h-31.95Z"/>
    <path class="cls-1" d="M709.28,386.15l20.52-55.29,16.55-.07,20.53,55.36h-15.61l-3.76-10.26h-19.15l-3.69,10.26h-15.39ZM731.98,364.76h11.78l-5.85-16.91-5.93,16.91Z"/>
    <path class="cls-1" d="M780.17,330.79h23.13c14.89,0,26.31,11.06,26.31,27.03s-10.77,28.33-26.16,28.33h-23.27v-55.36ZM794.84,373.72h6.36c8.53,0,13.8-6.79,13.8-16.12,0-8.46-5.64-14.74-13.37-14.74h-6.79v30.86Z"/>
    <path class="cls-1" d="M845.25,330.79h14.45v20.82h20.24v-20.82h14.45v55.36h-14.45v-22.48h-20.24v22.48h-14.45v-55.36Z"/>
    <path class="cls-1" d="M912.78,330.79h32.09v12.58h-17.63v8.96h16.62v12.29h-16.62v9.25h17.92v12.29h-32.38v-55.36Z"/>
    <path class="cls-1" d="M979.25,328.77c7.16,0,13.73,3.32,17.71,5.93l-5.64,10.84s-5.78-4.41-11.13-4.41c-3.54,0-5.57,1.95-5.57,4.84s3.4,3.98,6.29,5.06c1.73.65,4.55,1.81,6,2.39,8.31,3.32,12.58,8.38,12.58,16.69,0,11.85-10.99,18.07-22.12,18.07-7.81,0-13.3-3.25-19.08-6.87,0,0,4.55-9.11,5.78-11.2,2.67,2.39,7.73,5.35,13.01,5.35,4.05,0,8.02-1.37,8.02-4.34,0-2.31-.36-3.4-5.78-5.42-1.73-.65-5.85-2.24-8.24-3.32-7.01-3.18-10.84-8.17-10.84-15.97,0-11.06,9.18-17.63,19.01-17.63Z"/>
    <path class="cls-1" d="M1014.32,386.15v-55.36h14.45v55.36h-14.45Z"/>
    <path class="cls-1" d="M1057.2,330.79l14.02,36.14,13.73-36.14h15.76l-22.98,55.36h-13.59l-22.98-55.36h16.04Z"/>
    <path class="cls-1" d="M1113.29,330.79h32.09v12.58h-17.63v8.96h16.62v12.29h-16.62v9.25h17.92v12.29h-32.38v-55.36Z"/>
    <path class="cls-1" d="M1179.76,328.77c7.16,0,13.73,3.32,17.71,5.93l-5.64,10.84s-5.78-4.41-11.13-4.41c-3.54,0-5.57,1.95-5.57,4.84s3.4,3.98,6.29,5.06c1.73.65,4.55,1.81,6,2.39,8.31,3.32,12.58,8.38,12.58,16.69,0,11.85-10.99,18.07-22.12,18.07-7.81,0-13.3-3.25-19.08-6.87,0,0,4.55-9.11,5.78-11.2,2.67,2.39,7.73,5.35,13.01,5.35,4.05,0,8.02-1.37,8.02-4.34,0-2.31-.36-3.4-5.78-5.42-1.73-.65-5.85-2.24-8.24-3.32-7.01-3.18-10.84-8.17-10.84-15.97,0-11.06,9.18-17.63,19.01-17.63Z"/>
  </g>
</svg>