<?xml version="1.0" encoding="UTF-8"?>
<svg id="Layer_1" data-name="Layer 1" xmlns="http://www.w3.org/2000/svg" xmlns:xlink="http://www.w3.org/1999/xlink" version="1.1" viewBox="0 0 1518 670.4">
  <defs>
    <style>
      .cls-1 {
        filter: url(#drop-shadow-2);
      }

      .cls-2 {
        filter: url(#drop-shadow-1);
      }

      .cls-3 {
        fill: #f2f2f3;
      }

      .cls-3, .cls-4 {
        stroke-width: 0px;
      }

      .cls-4 {
        fill: #61b446;
      }
    </style>
    <filter id="drop-shadow-1" filterUnits="userSpaceOnUse">
      <feOffset dx="0" dy="0"/>
      <feGaussianBlur result="blur" stdDeviation="9"/>
      <feFlood flood-color="#000" flood-opacity="1"/>
      <feComposite in2="blur" operator="in"/>
      <feComposite in="SourceGraphic"/>
    </filter>
    <filter id="drop-shadow-2" filterUnits="userSpaceOnUse">
      <feOffset dx="0" dy="0"/>
      <feGaussianBlur result="blur-2" stdDeviation="10"/>
      <feFlood flood-color="#000" flood-opacity="1"/>
      <feComposite in2="blur-2" operator="in"/>
      <feComposite in="SourceGraphic"/>
    </filter>
  </defs>
  <image width="1273" height="462" transform="translate(122 104.3)" xlink:href="grünig_logo-01_shade-1.png"/>
  <g class="cls-2">
    <path class="cls-4" d="M271.5,348.1h47.3c-1.9,19.1-22.8,36.5-45.7,36.5-39.8,0-55.9-27.9-55.9-62.9s15.9-66.1,51-66.1,50.5,28.5,50.5,28.5l43-23.6c-21.2-35.4-51.6-51.6-92.9-51.6-59.9,0-106.9,47.5-106.9,110.7s41.9,110.1,107.4,110.1,105.3-52.4,105.3-113.4v-11.3h-103.1v43h0Z"/>
    <path class="cls-4" d="M556.9,281c0-43.8-33.8-64.5-70.4-64.5h-81.9v205.7h53.7v-72.5h10.7c5.9,9.4,43.2,72.5,43.2,72.5h64.2s-49.7-77.4-55.1-85.1c23.1-8.9,35.5-27.9,35.5-56.1h0ZM474.4,309.2h-17.2v-51.6h17.7c17.7,0,27.1,8.3,27.1,25.8s-12.9,25.8-27.7,25.8h0Z"/>
    <path class="cls-4" d="M719.4,345.5c0,23.9-16.9,34.4-36.5,34.4s-37.1-9.7-37.1-37.1v-126.2h-53.7v137.5c0,50.5,44.3,74.1,89.7,74.1s91.9-33,91.9-80v-131.6h-54.3v128.9h0Z"/>
    <polygon class="cls-4" points="964.5 338.5 868.3 216.5 814.6 216.5 814.6 422.3 868.3 422.3 868.3 299.5 962.9 422.3 1016.6 422.3 1016.6 216.5 964.5 216.5 964.5 338.5"/>
    <rect class="cls-4" x="1058.1" y="216.5" width="53.7" height="205.7"/>
    <path class="cls-4" d="M1252.7,305.2v43h47.3c-1.9,19.1-22.8,36.5-45.7,36.5-39.8,0-55.9-27.9-55.9-62.8s15.8-66.1,51-66.1,50.5,28.5,50.5,28.5l43-23.6c-21.2-35.4-51.6-51.6-92.9-51.6-59.9,0-106.9,47.5-106.9,110.7s41.9,110.1,107.4,110.1,105.3-52.4,105.3-113.4v-11.3h-103.1Z"/>
    <circle class="cls-4" cx="648.6" cy="165.9" r="24.8"/>
    <circle class="cls-4" cx="721.9" cy="165.9" r="24.8"/>
  </g>
  <g class="cls-1">
    <path class="cls-3" d="M173.4,527.3h-14.4v-55.4h24.7c9.8,0,17.4,6.7,17.4,18.6s-7.6,17.5-17,17.5h-10.7v19.3h0ZM173.2,497.3h5.1c4.4,0,8.5-1.4,8.5-7.4s-3.6-7.1-8.4-7.1h-5.2v14.5h0Z"/>
    <path class="cls-3" d="M229.4,507.8v19.5h-14.5v-55.4h22c9.8,0,18.9,5.6,18.9,17.4s-3.3,12.7-9.5,15.1c1.4,2.1,14.8,22.9,14.8,22.9h-17.3s-10.1-17-11.6-19.5h-2.9ZM229.1,496.8h4.6c4,0,7.4-1.7,7.4-6.9s-2.5-6.9-7.3-6.9h-4.8v13.9Z"/>
    <path class="cls-3" d="M300.4,469.9c17.4,0,30.5,12.8,30.5,29.1s-13.6,30.3-30.6,30.3-30.5-12.7-30.5-29.8,13.7-29.6,30.6-29.6h0ZM284.4,499.7c0,9.4,6.4,16,15.8,16s16-6.8,16-16.5-6.8-15.8-16-15.8-15.9,6.9-15.9,16.3h0Z"/>
    <path class="cls-3" d="M346.4,471.9h32.5v12.6h-18.1v9h15.8v12.3h-15.8v21.5h-14.4v-55.4h0Z"/>
    <path class="cls-3" d="M393.2,471.9h32.1v12.6h-17.6v9h16.6v12.3h-16.6v9.2h17.9v12.3h-32.4v-55.4h0Z"/>
    <path class="cls-3" d="M459.7,469.9c7.1,0,13.7,3.3,17.7,5.9l-5.6,10.8s-5.8-4.4-11.1-4.4-5.6,2-5.6,4.8,3.4,4,6.3,5.1c1.7.6,4.5,1.8,6,2.4,8.3,3.3,12.6,8.4,12.6,16.7,0,11.9-11,18.1-22.1,18.1s-13.3-3.2-19.1-6.9c0,0,4.5-9.1,5.8-11.2,2.7,2.4,7.7,5.4,13,5.4s8-1.4,8-4.3-.4-3.4-5.8-5.4c-1.7-.6-5.9-2.2-8.2-3.3-7-3.2-10.8-8.2-10.8-16,0-11.1,9.2-17.6,19-17.6h0Z"/>
    <path class="cls-3" d="M513.8,469.9c7.1,0,13.7,3.3,17.7,5.9l-5.6,10.8s-5.8-4.4-11.1-4.4-5.6,2-5.6,4.8,3.4,4,6.3,5.1c1.7.6,4.5,1.8,6,2.4,8.3,3.3,12.6,8.4,12.6,16.7,0,11.9-11,18.1-22.1,18.1s-13.3-3.2-19.1-6.9c0,0,4.5-9.1,5.8-11.2,2.7,2.4,7.7,5.4,13,5.4s8-1.4,8-4.3-.4-3.4-5.8-5.4c-1.7-.6-5.9-2.2-8.2-3.3-7-3.2-10.8-8.2-10.8-16,0-11.1,9.2-17.6,19-17.6h0Z"/>
    <path class="cls-3" d="M550.4,527.3v-55.4h14.5v55.4h-14.5Z"/>
    <path class="cls-3" d="M610.9,469.9c17.4,0,30.5,12.8,30.5,29.1s-13.6,30.3-30.6,30.3-30.5-12.7-30.5-29.8,13.7-29.6,30.6-29.6ZM594.9,499.7c0,9.4,6.4,16,15.8,16s16-6.8,16-16.5-6.8-15.8-16-15.8-15.9,6.9-15.9,16.3h0Z"/>
    <path class="cls-3" d="M671.4,527.3h-14.5v-55.4h14.5l25.9,32.8v-32.8h14v55.4h-14.5l-25.4-33v33h0Z"/>
    <path class="cls-3" d="M724.5,527.3l20.5-55.3h16.5c0,0,20.5,55.3,20.5,55.3h-15.6l-3.8-10.3h-19.2l-3.7,10.3h-15.4ZM747.2,505.9h11.8l-5.8-16.9-5.9,16.9h0Z"/>
    <path class="cls-3" d="M795.4,527.3v-55.4h14.5v42.8h17.5v12.6h-32,0Z"/>
    <path class="cls-3" d="M868.3,527.3l20.5-55.3h16.5c0,0,20.5,55.3,20.5,55.3h-15.6l-3.8-10.3h-19.2l-3.7,10.3h-15.4ZM891,505.9h11.8l-5.8-16.9-5.9,16.9h0Z"/>
    <path class="cls-3" d="M939.2,471.9h23.1c14.9,0,26.3,11.1,26.3,27s-10.8,28.3-26.2,28.3h-23.3v-55.4h0ZM953.8,514.8h6.4c8.5,0,13.8-6.8,13.8-16.1s-5.6-14.7-13.4-14.7h-6.8v30.9h0Z"/>
    <path class="cls-3" d="M1004.2,471.9h14.5v20.8h20.2v-20.8h14.5v55.4h-14.5v-22.5h-20.2v22.5h-14.5v-55.4h0Z"/>
    <path class="cls-3" d="M1071.8,471.9h32.1v12.6h-17.6v9h16.6v12.3h-16.6v9.2h17.9v12.3h-32.4v-55.4h0Z"/>
    <path class="cls-3" d="M1138.2,469.9c7.2,0,13.7,3.3,17.7,5.9l-5.6,10.8s-5.8-4.4-11.1-4.4-5.6,2-5.6,4.8,3.4,4,6.3,5.1c1.7.6,4.5,1.8,6,2.4,8.3,3.3,12.6,8.4,12.6,16.7,0,11.9-11,18.1-22.1,18.1s-13.3-3.2-19.1-6.9c0,0,4.5-9.1,5.8-11.2,2.7,2.4,7.7,5.4,13,5.4s8-1.4,8-4.3-.4-3.4-5.8-5.4c-1.7-.6-5.8-2.2-8.2-3.3-7-3.2-10.8-8.2-10.8-16,0-11.1,9.2-17.6,19-17.6h0Z"/>
    <path class="cls-3" d="M1173.3,527.3v-55.4h14.5v55.4h-14.5Z"/>
    <path class="cls-3" d="M1216.2,471.9l14,36.1,13.7-36.1h15.8l-23,55.4h-13.6l-23-55.4h16,0Z"/>
    <path class="cls-3" d="M1272.3,471.9h32.1v12.6h-17.6v9h16.6v12.3h-16.6v9.2h17.9v12.3h-32.4v-55.4h0Z"/>
    <path class="cls-3" d="M1338.8,469.9c7.2,0,13.7,3.3,17.7,5.9l-5.6,10.8s-5.8-4.4-11.1-4.4-5.6,2-5.6,4.8,3.4,4,6.3,5.1c1.7.6,4.6,1.8,6,2.4,8.3,3.3,12.6,8.4,12.6,16.7,0,11.9-11,18.1-22.1,18.1s-13.3-3.2-19.1-6.9c0,0,4.6-9.1,5.8-11.2,2.7,2.4,7.7,5.4,13,5.4s8-1.4,8-4.3-.4-3.4-5.8-5.4c-1.7-.6-5.8-2.2-8.2-3.3-7-3.2-10.8-8.2-10.8-16,0-11.1,9.2-17.6,19-17.6h0Z"/>
  </g>
</svg>