<?xml version="1.0" encoding="UTF-8"?>
<svg id="Layer_1" data-name="Layer 1" xmlns="http://www.w3.org/2000/svg" version="1.1" viewBox="0 0 98.3 63.4">
  <defs>
    <style>
      .cls-1 {
        fill: #fff;
        stroke-width: 0px;
      }
    </style>
  </defs>
  <path class="cls-1" d="M77.2,0c-11.5,0-19.5,6.5-22.7,15.1H8.6C3.9,15.1,0,19,0,23.7v31.1c0,4.7,3.9,8.6,8.6,8.6h57.1c4.7,0,8.6-3.9,8.6-8.6v-7.9h1.4c4.2,0,7.5-.8,9.9-1.7l-1.1-4.1c-2.1.6-5.3,1.4-8.8,1.4h-1.4v-6.8c2.2-.4,3.9-1.5,5.4-2.7h0c1.2,2.1,3.1,3.5,6.7,3.5,5.8,0,11.7-5.7,11.7-16.1.1-11.1-7.7-20.4-21-20.4ZM62.4,20.9l-25.2,15.6-25.3-15.6h50.5ZM65.7,57.6H8.6c-1.6,0-2.8-1.3-2.8-2.8v-30.9l31.4,19.5,31.4-19.5v30.9c0,1.5-1.3,2.8-2.9,2.8ZM78.5,29.2c-1,.8-2.7,1.4-4.1,1.5v-7c0-2-.7-3.9-1.9-5.3,1-1.1,2.3-1.7,3.8-1.7s3,.5,4,1.4l-1.8,11.1ZM87,32.1c-2.6,0-3.2-2.1-2.6-5.4l2.6-14.6h-4.3l-1.2,1.9h0c-1.4-1.2-3.1-2.6-6.2-2.6s-5.8,1.5-7.7,3.8c-.6-.1-1.2-.2-1.9-.2h-5.9c2.8-6.2,8.6-10.7,17.3-10.7s16.4,7.6,16.4,16.1c0,8.1-3.2,11.7-6.4,11.7Z"/>
</svg>