<?xml version="1.0" encoding="utf-8"?>
<!-- Generator: Adobe Illustrator 28.2.0, SVG Export Plug-In . SVG Version: 6.00 Build 0)  -->
<svg version="1.1" id="Layer_1" xmlns="http://www.w3.org/2000/svg" xmlns:xlink="http://www.w3.org/1999/xlink" x="0px" y="0px"
	 viewBox="0 0 98.3 63.4" style="enable-background:new 0 0 98.3 63.4;" xml:space="preserve">
<style type="text/css">
	.st0{fill:#78B042;}
</style>
<path class="st0" d="M77.2,0C65.7,0,57.7,6.5,54.5,15.1H8.6c-4.7,0-8.6,3.9-8.6,8.6v31.1c0,4.7,3.9,8.6,8.6,8.6h57.1
	c4.7,0,8.6-3.9,8.6-8.6v-7.9c0.5,0,0.9,0,1.4,0c4.2,0,7.5-0.8,9.9-1.7l-1.1-4.1c-2.1,0.6-5.3,1.4-8.8,1.4c-0.5,0-0.9,0-1.4,0v-6.8
	c2.2-0.4,3.9-1.5,5.4-2.7h0.1c1.2,2.1,3.1,3.5,6.7,3.5c5.8,0,11.7-5.7,11.7-16.1C98.3,9.3,90.5,0,77.2,0z M62.4,20.9L37.2,36.5
	L11.9,20.9H62.4z M65.7,57.6H8.6c-1.6,0-2.8-1.3-2.8-2.8V23.9l31.4,19.5l31.4-19.5v30.9C68.6,56.3,67.3,57.6,65.7,57.6z M78.5,29.2
	c-1,0.8-2.7,1.4-4.1,1.5v-7c0-2-0.7-3.9-1.9-5.3c1-1.1,2.3-1.7,3.8-1.7c1.5,0,3,0.5,4,1.4L78.5,29.2z M87,32.1
	c-2.6,0-3.2-2.1-2.6-5.4l2.6-14.6h-4.3L81.5,14h-0.1c-1.4-1.2-3.1-2.6-6.2-2.6c-3.2,0-5.8,1.5-7.7,3.8c-0.6-0.1-1.2-0.2-1.9-0.2
	h-5.9c2.8-6.2,8.6-10.7,17.3-10.7c11.6,0,16.4,7.6,16.4,16.1C93.5,28.5,90.2,32.1,87,32.1z"/>
</svg>
