<?xml version="1.0" encoding="utf-8"?>
<!-- Generator: Adobe Illustrator 28.2.0, SVG Export Plug-In . SVG Version: 6.00 Build 0)  -->
<svg version="1.1" id="Layer_1" xmlns="http://www.w3.org/2000/svg" xmlns:xlink="http://www.w3.org/1999/xlink" x="0px" y="0px"
	 viewBox="0 0 58.2 71.9" style="enable-background:new 0 0 58.2 71.9;" xml:space="preserve">
<style type="text/css">
	.st0{fill:#78B042;}
</style>
<g>
	<path class="st0" d="M26.2,34.7h-6.5V25c0-0.6,0.5-1.1,1.1-1.1h4.3c0.6,0,1.1,0.5,1.1,1.1V34.7z"/>
	<path class="st0" d="M38.7,34.7h-6.5l0-9.7c0-0.6,0.5-1.1,1.1-1.1h4.3c0.6,0,1.1,0.5,1.1,1.1V34.7z"/>
	<path class="st0" d="M58.2,65.9l-0.9-8.7c-0.4-4.4-1.5-8.7-3-12.8l-3.6-9.5c-0.3-3.1-3-5.5-6.1-5.5H15.3c-3,0-5.6,2.2-6.1,5.2
		L4.9,44.7c-1.7,3.9-2.8,8-3.5,12.2l-1.3,8.8c-0.5,3.3,2,6.2,5.4,6.2h47.4C56,71.9,58.5,69.1,58.2,65.9z M29.1,64.9
		c-7.9,0-14.3-6.4-14.3-14.3s6.4-14.3,14.3-14.3s14.3,6.4,14.3,14.3S37,64.9,29.1,64.9z"/>
	<circle class="st0" cx="29.1" cy="50.6" r="8.6"/>
	<path class="st0" d="M14.1,11.5L14.1,11.5c0-0.9,0.7-1.7,1.7-1.8C23.9,8.1,37,9.2,42.5,9.8c1.5,0.2,2.6,1.3,2.6,2.6v0
		c-3.2,1-5.8,3.4-6.6,6.5c-0.2,0.7,0.4,1.4,1.1,1.4l17.2,1.3c0.8,0.1,1.4-0.5,1.4-1.2c-0.2-3.4-2.6-6.4-6-7.7V8.9
		c0-3-2.2-5.6-5.3-6.4L45.1,2C34.9-0.7,24.2-0.7,14.1,2l-1.9,0.5C9.1,3.3,6.9,5.9,6.9,8.8l0,3.3c-3.2,1.4-5.3,4.3-5.5,7.6
		c0,0.7,0.6,1.3,1.4,1.2l17.2-1.3c0.8-0.1,1.3-0.7,1.1-1.4C20.2,14.9,17.5,12.4,14.1,11.5z"/>
</g>
</svg>
