<?xml version="1.0" encoding="UTF-8"?>
<svg id="Layer_1" data-name="Layer 1" xmlns="http://www.w3.org/2000/svg" version="1.1" viewBox="0 0 58.2 71.9">
  <defs>
    <style>
      .cls-1 {
        fill: #fff;
        stroke-width: 0px;
      }
    </style>
  </defs>
  <path class="cls-1" d="M58.2,65.9l-.9-8.7c-.4-4.4-1.5-8.7-3-12.8l-3.6-9.5c-.3-3.1-3-5.5-6.1-5.5h-5.9v-4.4c0-.6-.5-1.1-1.1-1.1h-4.3c-.6,0-1.1.5-1.1,1.1v4.4h-6v-4.4c0-.6-.5-1.1-1.1-1.1h-4.3c-.6,0-1.1.5-1.1,1.1v4.4h-4.4c-3,0-5.6,2.2-6.1,5.2l-4.3,10.1c-1.7,3.9-2.8,8-3.5,12.2L0,65.7c-.5,3.3,2,6.2,5.4,6.2h47.4c3.1,0,5.6-2.8,5.3-6ZM29.1,64.9c-7.9,0-14.3-6.4-14.3-14.3s6.4-14.3,14.3-14.3,14.3,6.4,14.3,14.3-6.4,14.3-14.3,14.3Z"/>
  <circle class="cls-1" cx="29.1" cy="50.6" r="8.6" transform="translate(-27.3 35.4) rotate(-45)"/>
  <path class="cls-1" d="M2.8,20.9l17.2-1.3c.8-.1,1.3-.7,1.1-1.4-.9-3.3-3.6-5.8-7-6.7,0-.9.7-1.7,1.7-1.8,8.1-1.6,21.2-.5,26.7.1,1.5.2,2.6,1.3,2.6,2.6-3.2,1-5.8,3.4-6.6,6.5-.2.7.4,1.4,1.1,1.4l17.2,1.3c.8,0,1.4-.5,1.4-1.2-.2-3.4-2.6-6.4-6-7.7v-3.8c0-3-2.2-5.6-5.3-6.4l-1.8-.5C34.9-.7,24.2-.7,14.1,2l-1.9.5c-3.1.8-5.3,3.4-5.3,6.3v3.3c-3.2,1.4-5.3,4.3-5.5,7.6,0,.7.6,1.3,1.4,1.2Z"/>
</svg>