<?xml version="1.0" encoding="utf-8"?>
<!-- Generator: Adobe Illustrator 28.2.0, SVG Export Plug-In . SVG Version: 6.00 Build 0)  -->
<svg version="1.1" id="Layer_1" xmlns="http://www.w3.org/2000/svg" xmlns:xlink="http://www.w3.org/1999/xlink" x="0px" y="0px"
	 viewBox="0 0 134.1 142.2" style="enable-background:new 0 0 134.1 142.2;" xml:space="preserve">
<style type="text/css">
	.st0{fill:#7BAD41;}
	.st1{fill:#FFFFFF;}
</style>
<path class="st0" d="M0.1,67.9c0.4,6.8,2.5,13.6,5.2,19.6c5.6,12.2,14,23.5,23.1,33.5c10.7,11.7,25.1,22,41.7,21.1
	c31.8-1.6,47-37.2,57.5-62.4c7.7-18.5,10.1-40.5-1.6-58c-8.8-13-26.2-22.6-44.3-21.7C56.2,1.4,47.1,18.7,28.9,29.4
	c-8.6,5-19,10.4-24.4,19.2C0.9,54.5-0.3,61.2,0.1,67.9z"/>
<g>
	<path class="st1" d="M32.8,45.3l8.7,14.8c0.2,0.4,0.2,0.8,0,1.2L27.7,86.2c-0.4,0.8,0.1,1.8,1,1.8h13.4c0.4,0,0.8-0.2,1-0.6
		l15.9-26.2c0.2-0.4,0.2-0.9,0-1.3L49.2,44c-0.2-0.4-0.6-0.6-1-0.6H33.9C32.9,43.5,32.4,44.5,32.8,45.3z"/>
	<path class="st1" d="M77.1,113.8L56.8,78.6c-0.2-0.4-0.2-0.8,0-1.2l30.1-51c0.2-0.4,0.6-0.6,1-0.6h13.4c0.9,0,1.5,1,1,1.8
		L74.6,77.7c-0.2,0.4-0.2,0.8,0,1.1l17.9,33.7c0.4,0.8-0.2,1.8-1.1,1.8H78.1C77.7,114.4,77.3,114.1,77.1,113.8z"/>
</g>
</svg>
