<?xml version="1.0" encoding="utf-8"?>
<!-- Generator: Adobe Illustrator 28.2.0, SVG Export Plug-In . SVG Version: 6.00 Build 0)  -->
<svg version="1.1" id="Layer_1" xmlns="http://www.w3.org/2000/svg" xmlns:xlink="http://www.w3.org/1999/xlink" x="0px" y="0px"
	 viewBox="0 0 125.2 150.8" style="enable-background:new 0 0 125.2 150.8;" xml:space="preserve">
<style type="text/css">
	.st0{fill:#7BAD41;}
	.st1{fill:#FFFFFF;}
</style>
<path class="st0" d="M100.2,13.8C86.2,2.7,67.4-2.2,49.8,1S16.2,15.5,7.6,31.2c-8.8,16-9.6,35.7-4.4,53.2s16.2,32.9,29.6,45.4
	c15.2,14.3,36.6,25.5,56.6,19.2C137.1,133.8,133.5,40.5,100.2,13.8z"/>
<g>
	<path class="st1" d="M44.4,54.3H29c-0.6,0-1,0.5-1,1V102c0,0.6,0.5,1,1,1h15.4c0.6,0,1-0.5,1-1V55.4C45.4,54.8,45,54.3,44.4,54.3z"
		/>
	<path class="st1" d="M79.2,54.3c-4.9,0.3-10.5,2.9-10.5,2.9v-1.9c0-0.6-0.5-1-1-1H52.3c-0.6,0-1,0.5-1,1V102c0,0.6,0.5,1,1,1h15.4
		c0.6,0,1-0.5,1-1V72.3c0-3.6,13.1-9.1,13.1-3.2V102c0,0.6,0.5,1,1,1h15.4c0.6,0,1-0.5,1-1V69.1C99.2,52.3,84.2,54,79.2,54.3z"/>
	<circle class="st1" cx="36.7" cy="40.7" r="8.7"/>
</g>
</svg>
