<?xml version="1.0" encoding="UTF-8"?>
<svg id="Layer_1" data-name="Layer 1" xmlns="http://www.w3.org/2000/svg" version="1.1" viewBox="0 0 134.1 142.2">
  <defs>
    <style>
      .cls-1 {
        fill: #61b446;
      }

      .cls-1, .cls-2 {
        stroke-width: 0px;
      }

      .cls-2 {
        fill: #fff;
      }
    </style>
  </defs>
  <path class="cls-1" d="M.1,67.9c.4,6.8,2.5,13.6,5.2,19.6,5.6,12.2,14,23.5,23.1,33.5,10.7,11.7,25.1,22,41.7,21.1,31.8-1.6,47-37.2,57.5-62.4,7.7-18.5,10.1-40.5-1.6-58C117.2,8.7,99.8-.9,81.7,0c-25.5,1.4-34.6,18.7-52.8,29.4-8.6,5-19,10.4-24.4,19.2C.9,54.5-.3,61.2.1,67.9Z"/>
  <g>
    <path class="cls-2" d="M32.8,45.3l8.7,14.8c.2.4.2.8,0,1.2l-13.8,24.9c-.4.8.1,1.8,1,1.8h13.4c.4,0,.8-.2,1-.6l15.9-26.2c.2-.4.2-.9,0-1.3l-9.8-15.9c-.2-.4-.6-.6-1-.6h-14.3c-1,0-1.5,1.1-1.1,1.9Z"/>
    <path class="cls-2" d="M77.1,113.8l-20.3-35.2c-.2-.4-.2-.8,0-1.2l30.1-51c.2-.4.6-.6,1-.6h13.4c.9,0,1.5,1,1,1.8l-27.7,50.1c-.2.4-.2.8,0,1.1l17.9,33.7c.4.8-.2,1.8-1.1,1.8h-13.3c-.4,0-.8-.2-1-.5Z"/>
  </g>
</svg>